<svg width="164" height="44" viewBox="0 0 164 44" fill="none" xmlns="http://www.w3.org/2000/svg">
<g clip-path="url(#clip0_171_256)">
<path fill-rule="evenodd" clip-rule="evenodd" d="M6.57896 35.349C2.84263 32.1116 0.479492 27.3318 0.479492 22.0001C0.479492 16.6684 2.84263 11.8886 6.57896 8.65112V35.349Z" fill="#0476F4"/>
<path fill-rule="evenodd" clip-rule="evenodd" d="M35.5205 25.0999C34.0554 33.3731 26.8295 39.6562 18.1361 39.6562C15.7032 39.6562 13.3853 39.1641 11.2764 38.2742V27.3863L11.3748 27.487L16.7075 32.8201H16.7078C18.2348 34.3474 20.2452 35.1108 22.2536 35.1108C24.2624 35.1108 26.2732 34.3474 27.8001 32.8201L35.5205 25.0999Z" fill="#0476F4"/>
<path fill-rule="evenodd" clip-rule="evenodd" d="M27.4267 6.98438C31.5299 9.52786 34.5117 13.7067 35.4655 18.6099L35.4167 18.5608L24.4787 29.4988C23.8688 30.1083 23.062 30.4134 22.2536 30.4134C21.4451 30.4134 20.6387 30.1083 20.0289 29.4988L14.696 24.1657C14.086 23.5556 13.781 22.749 13.781 21.9403C13.781 21.1318 14.086 20.3254 14.696 19.7156L25.066 9.34512L27.4267 6.98438Z" fill="#04BFFD"/>
<path fill-rule="evenodd" clip-rule="evenodd" d="M18.1361 4.34375C19.7509 4.34375 21.3149 4.562 22.801 4.96805L11.3748 16.3945L11.2764 16.4949V5.72581C13.3853 4.83573 15.7032 4.34375 18.1361 4.34375Z" fill="#0476F4"/>
</g>
<path d="M63.9531 34H57.9375L54.6094 25.4844L53.3281 26.3594V34H47.8906V11.1562H53.3281V21.0781C53.4219 20.6198 53.5729 20.151 53.7812 19.6719C54 19.1927 54.2448 18.6875 54.5156 18.1562L58.1875 11.1562H64.0469L58.5469 21.3906L63.9531 34ZM79.1094 25.1094C79.1094 26.2448 78.9844 27.3594 78.7344 28.4531C78.4948 29.5365 78.0938 30.5208 77.5312 31.4062C76.9688 32.2917 76.224 33 75.2969 33.5312C74.3802 34.0521 73.2396 34.3125 71.875 34.3125C70.625 34.3125 69.5469 34.0573 68.6406 33.5469C67.7344 33.026 66.9896 32.3333 66.4062 31.4688C65.8229 30.5938 65.3906 29.6094 65.1094 28.5156C64.8281 27.4115 64.6875 26.276 64.6875 25.1094C64.6875 23.4115 64.9323 21.875 65.4219 20.5C65.9115 19.1146 66.6875 18.0156 67.75 17.2031C68.8229 16.3906 70.2188 15.9844 71.9375 15.9844C73.375 15.9844 74.6302 16.3438 75.7031 17.0625C76.776 17.7708 77.6094 18.8021 78.2031 20.1562C78.8073 21.5104 79.1094 23.1615 79.1094 25.1094ZM69.9219 25.1719C69.9219 26.224 69.9896 27.1094 70.125 27.8281C70.2708 28.5469 70.4896 29.0885 70.7812 29.4531C71.0729 29.8177 71.4479 30 71.9062 30C72.3958 30 72.7812 29.8229 73.0625 29.4688C73.3438 29.1042 73.5469 28.5573 73.6719 27.8281C73.7969 27.099 73.8594 26.1927 73.8594 25.1094C73.8594 24.026 73.7969 23.1302 73.6719 22.4219C73.5469 21.7135 73.3438 21.1823 73.0625 20.8281C72.7812 20.474 72.3958 20.2969 71.9062 20.2969C71.2188 20.2969 70.7135 20.6927 70.3906 21.4844C70.0781 22.276 69.9219 23.5052 69.9219 25.1719ZM86.4844 34.3125C84.8073 34.3125 83.5104 33.4844 82.5938 31.8281C81.6771 30.1719 81.2188 27.9323 81.2188 25.1094C81.2188 22.276 81.6719 20.0469 82.5781 18.4219C83.4948 16.7969 84.7448 15.9844 86.3281 15.9844C86.8802 15.9844 87.3854 16.0729 87.8438 16.25C88.3021 16.4271 88.724 16.7083 89.1094 17.0938C89.5052 17.4688 89.8594 17.9635 90.1719 18.5781H90.3281C90.2865 17.776 90.25 17.0938 90.2188 16.5312C90.1875 15.9688 90.1719 15.5208 90.1719 15.1875V9.6875H95.3594V34H91.2031L90.4531 32.2656H90.1719C89.7969 32.7656 89.4323 33.1667 89.0781 33.4688C88.7344 33.7604 88.3594 33.974 87.9531 34.1094C87.5469 34.2448 87.0573 34.3125 86.4844 34.3125ZM88.1875 30C88.8958 30 89.401 29.651 89.7031 28.9531C90.0156 28.2448 90.1719 27.099 90.1719 25.5156V24.5C90.1719 23.0938 90.0156 22.0677 89.7031 21.4219C89.401 20.7656 88.9062 20.4375 88.2188 20.4375C87.6458 20.4375 87.2083 20.8229 86.9062 21.5938C86.6042 22.3542 86.4531 23.5052 86.4531 25.0469C86.4531 26.724 86.6042 27.9688 86.9062 28.7812C87.2188 29.5938 87.6458 30 88.1875 30ZM104.844 16.0156C106.25 16.0156 107.453 16.3281 108.453 16.9531C109.453 17.5781 110.214 18.4896 110.734 19.6875C111.266 20.8854 111.531 22.349 111.531 24.0781V26.7969H103.078C103.078 27.9844 103.323 28.849 103.812 29.3906C104.312 29.9219 105.073 30.1875 106.094 30.1875C106.906 30.1875 107.661 30.0833 108.359 29.875C109.057 29.6667 109.812 29.3125 110.625 28.8125V33.0469C109.865 33.4948 109.047 33.8177 108.172 34.0156C107.297 34.2135 106.349 34.3125 105.328 34.3125C103.62 34.3125 102.224 33.9688 101.141 33.2812C100.068 32.5833 99.276 31.5573 98.7656 30.2031C98.2552 28.849 98 27.1927 98 25.2344C98 23.2552 98.2552 21.5833 98.7656 20.2188C99.2865 18.8438 100.052 17.8021 101.062 17.0938C102.083 16.375 103.344 16.0156 104.844 16.0156ZM104.969 20.0156C104.427 20.0156 103.974 20.25 103.609 20.7188C103.255 21.1875 103.078 22 103.078 23.1562H106.734C106.734 22.4062 106.661 21.8021 106.516 21.3438C106.37 20.875 106.161 20.5365 105.891 20.3281C105.63 20.1198 105.323 20.0156 104.969 20.0156ZM131.344 15.9844C132.927 15.9844 134.115 16.5208 134.906 17.5938C135.698 18.6562 136.094 20.2865 136.094 22.4844V34H130.906V24.1719C130.906 22.9948 130.792 22.1042 130.562 21.5C130.333 20.8958 129.979 20.5938 129.5 20.5938C128.771 20.5938 128.276 20.9948 128.016 21.7969C127.766 22.5885 127.641 23.8385 127.641 25.5469V34H122.453V24.1719C122.453 23.3802 122.401 22.724 122.297 22.2031C122.203 21.6719 122.057 21.2708 121.859 21C121.661 20.7292 121.401 20.5938 121.078 20.5938C120.599 20.5938 120.219 20.7812 119.938 21.1562C119.667 21.5312 119.474 22.1198 119.359 22.9219C119.245 23.724 119.188 24.7708 119.188 26.0625V34H114V16.2969H118.062L118.641 18.4844H118.938C119.167 17.9323 119.484 17.474 119.891 17.1094C120.297 16.7344 120.781 16.4531 121.344 16.2656C121.917 16.0781 122.542 15.9844 123.219 15.9844C124.26 15.9844 125.089 16.2031 125.703 16.6406C126.318 17.0781 126.76 17.6354 127.031 18.3125H127.375C127.781 17.5729 128.307 17 128.953 16.5938C129.609 16.1875 130.406 15.9844 131.344 15.9844ZM137.719 16.2969H143.156L145.016 23.9844C145.099 24.349 145.177 24.7135 145.25 25.0781C145.323 25.4427 145.385 25.7865 145.438 26.1094C145.49 26.4219 145.521 26.7031 145.531 26.9531H145.656C145.688 26.599 145.745 26.1927 145.828 25.7344C145.911 25.2656 146.036 24.7031 146.203 24.0469L147.922 16.2969H153.297L147.953 35.125C147.495 36.7292 146.969 38.0104 146.375 38.9688C145.792 39.9375 145.104 40.6302 144.312 41.0469C143.531 41.474 142.604 41.6875 141.531 41.6875C141.115 41.6875 140.719 41.6615 140.344 41.6094C139.969 41.5573 139.615 41.4948 139.281 41.4219V36.875C139.49 36.9479 139.703 37 139.922 37.0312C140.151 37.0625 140.365 37.0781 140.562 37.0781C140.99 37.0781 141.328 37.0052 141.578 36.8594C141.839 36.724 142.068 36.4375 142.266 36C142.474 35.5729 142.708 34.9271 142.969 34.0625L143.062 33.75L137.719 16.2969Z" fill="url(#paint0_linear_171_256)"/>
<defs>
<linearGradient id="paint0_linear_171_256" x1="46" y1="22.1517" x2="154" y2="22.1517" gradientUnits="userSpaceOnUse">
<stop stop-color="#0476F4"/>
<stop offset="1" stop-color="#04BFFD"/>
</linearGradient>
<clipPath id="clip0_171_256">
<rect width="36" height="36" fill="white" transform="translate(0 4)"/>
</clipPath>
</defs>
</svg>
