<svg width="55" height="52" viewBox="0 0 55 52" fill="none" xmlns="http://www.w3.org/2000/svg">
<ellipse cx="27.5935" cy="26" rx="27.3544" ry="26" fill="url(#paint0_linear_297_426)"/>
<path d="M17.0728 18.3232C17.0728 17.6498 17.3216 17.0943 17.8192 16.6566C18.3168 16.2188 18.9637 16 19.7599 16C20.5418 16 21.1745 16.2155 21.6579 16.6465C22.1555 17.0909 22.4043 17.67 22.4043 18.3838C22.4043 19.0303 22.1626 19.569 21.6792 20C21.1816 20.4444 20.5276 20.6667 19.7172 20.6667H19.6959C18.9139 20.6667 18.2812 20.4444 17.7978 20C17.3144 19.5556 17.0728 18.9966 17.0728 18.3232ZM17.35 36V22.5051H22.0844V36H17.35ZM24.7075 36H29.4419V28.4646C29.4419 27.9933 29.4988 27.6296 29.6126 27.3737C29.8116 26.9158 30.1137 26.5286 30.5189 26.2121C30.9241 25.8956 31.4324 25.7374 32.0437 25.7374C33.6361 25.7374 34.4323 26.7542 34.4323 28.7879V36H39.1667V28.2626C39.1667 26.2694 38.6691 24.7576 37.6739 23.7273C36.6786 22.697 35.3635 22.1818 33.7285 22.1818C31.8945 22.1818 30.4656 22.9293 29.4419 24.4242V24.4646H29.4206L29.4419 24.4242V22.5051H24.7075C24.736 22.936 24.7502 24.2761 24.7502 26.5253C24.7502 28.7744 24.736 31.9326 24.7075 36Z" fill="white"/>
<defs>
<linearGradient id="paint0_linear_297_426" x1="0.239136" y1="26.1793" x2="54.9479" y2="26.1793" gradientUnits="userSpaceOnUse">
<stop stop-color="#0476F4"/>
<stop offset="1" stop-color="#04BFFD"/>
</linearGradient>
</defs>
</svg>
