<svg width="56" height="52" viewBox="0 0 56 52" fill="none" xmlns="http://www.w3.org/2000/svg">
<ellipse cx="27.8429" cy="26" rx="27.3544" ry="26" fill="url(#paint0_linear_297_423)"/>
<path d="M41.52 18.3677C40.5028 18.7692 39.4189 19.0354 38.2888 19.1646C39.4514 18.54 40.3387 17.5585 40.7558 16.3754C39.6719 16.9569 38.4752 17.3677 37.1998 17.5969C36.1706 16.6108 34.7037 16 33.1034 16C29.9987 16 27.4992 18.2677 27.4992 21.0477C27.4992 21.4477 27.5368 21.8323 27.6291 22.1985C22.9669 21.9938 18.8415 19.9831 16.0702 16.92C15.5864 17.6754 15.3026 18.54 15.3026 19.4708C15.3026 21.2185 16.3027 22.7677 17.7935 23.6646C16.8925 23.6492 16.0087 23.4138 15.2598 23.0431C15.2598 23.0585 15.2598 23.0785 15.2598 23.0985C15.2598 25.5508 17.2037 27.5877 19.7528 28.0569C19.2963 28.1692 18.7988 28.2231 18.2825 28.2231C17.9235 28.2231 17.561 28.2046 17.2208 28.1369C17.9474 30.1354 20.0092 31.6046 22.4609 31.6523C20.5529 32.9954 18.1303 33.8046 15.5077 33.8046C15.0478 33.8046 14.6067 33.7862 14.1656 33.7354C16.6498 35.1769 19.5938 36 22.7686 36C33.0881 36 38.7299 28.3077 38.7299 21.64C38.7299 21.4169 38.7214 21.2015 38.7094 20.9877C39.8224 20.2769 40.7575 19.3892 41.52 18.3677Z" fill="white"/>
<defs>
<linearGradient id="paint0_linear_297_423" x1="0.488525" y1="26.1793" x2="55.1973" y2="26.1793" gradientUnits="userSpaceOnUse">
<stop stop-color="#0476F4"/>
<stop offset="1" stop-color="#04BFFD"/>
</linearGradient>
</defs>
</svg>
