<svg width="56" height="56" viewBox="0 0 56 56" fill="none" xmlns="http://www.w3.org/2000/svg">
<g clip-path="url(#clip0_297_280)">
<circle cx="28" cy="28" r="28" fill="url(#paint0_linear_297_280)"/>
<path d="M24.0001 14.6667C20.5067 14.6667 17.6667 17.5067 17.6667 21.0001C17.6667 24.4267 20.3467 27.2001 23.8401 27.3201C23.9467 27.3067 24.0534 27.3067 24.1334 27.3201C24.1601 27.3201 24.1734 27.3201 24.2001 27.3201C24.2134 27.3201 24.2134 27.3201 24.2267 27.3201C27.6401 27.2001 30.3201 24.4267 30.3334 21.0001C30.3334 17.5067 27.4934 14.6667 24.0001 14.6667Z" fill="white"/>
<path d="M30.7733 30.8667C27.0533 28.3867 20.9866 28.3867 17.2399 30.8667C15.5466 32 14.6133 33.5334 14.6133 35.1734C14.6133 36.8134 15.5466 38.3334 17.2266 39.4534C19.0933 40.7067 21.5466 41.3334 23.9999 41.3334C26.4533 41.3334 28.9066 40.7067 30.7733 39.4534C32.4533 38.32 33.3866 36.8 33.3866 35.1467C33.3733 33.5067 32.4533 31.9867 30.7733 30.8667Z" fill="white"/>
<path d="M38.6532 21.7866C38.8666 24.3733 37.0266 26.64 34.4799 26.9466C34.4666 26.9466 34.4666 26.9466 34.4532 26.9466H34.4132C34.3332 26.9466 34.2532 26.9466 34.1866 26.9733C32.8932 27.04 31.7066 26.6266 30.8132 25.8666C32.1866 24.64 32.9732 22.8 32.8132 20.8C32.7199 19.72 32.3466 18.7333 31.7866 17.8933C32.2932 17.64 32.8799 17.48 33.4799 17.4266C36.0932 17.2 38.4266 19.1466 38.6532 21.7866Z" fill="white"/>
<path d="M41.32 34.12C41.2133 35.4133 40.3867 36.5333 39 37.2933C37.6667 38.0267 35.9867 38.3733 34.32 38.3333C35.28 37.4667 35.84 36.3867 35.9467 35.24C36.08 33.5867 35.2933 32 33.72 30.7333C32.8267 30.0267 31.7867 29.4667 30.6533 29.0533C33.6 28.2 37.3067 28.7733 39.5867 30.6133C40.8133 31.6 41.44 32.84 41.32 34.12Z" fill="white"/>
</g>
<defs>
<linearGradient id="paint0_linear_297_280" x1="0" y1="28.1931" x2="56" y2="28.1931" gradientUnits="userSpaceOnUse">
<stop stop-color="#0476F4"/>
<stop offset="1" stop-color="#04BFFD"/>
</linearGradient>
<clipPath id="clip0_297_280">
<rect width="56" height="56" fill="white"/>
</clipPath>
</defs>
</svg>
