<svg width="56" height="56" viewBox="0 0 56 56" fill="none" xmlns="http://www.w3.org/2000/svg">
<g clip-path="url(#clip0_283_48)">
<circle cx="28" cy="28" r="28" fill="url(#paint0_linear_283_48)"/>
<path d="M36 14.6667H20C17.7867 14.6667 16 16.4401 16 18.6267V33.1734C16 35.3601 17.7867 37.1334 20 37.1334H21.0133C22.08 37.1334 23.0933 37.5467 23.84 38.2934L26.12 40.5467C27.16 41.5734 28.8533 41.5734 29.8933 40.5467L32.1733 38.2934C32.92 37.5467 33.9467 37.1334 35 37.1334H36C38.2133 37.1334 40 35.3601 40 33.1734V18.6267C40 16.4401 38.2133 14.6667 36 14.6667ZM25.84 29.3467C26.3867 29.3467 26.84 29.8001 26.84 30.3467C26.84 30.8934 26.3867 31.3467 25.84 31.3467H22.2667C21.68 31.3467 21.1333 31.0667 20.7867 30.5867C20.4533 30.1334 20.3733 29.5734 20.5333 29.0401C21 27.6134 22.1467 26.8401 23.16 26.1467C24.2267 25.4267 24.8267 24.9734 24.8267 24.2001C24.8267 23.5067 24.2667 22.9467 23.5733 22.9467C22.88 22.9467 22.3333 23.5201 22.3333 24.2134C22.3333 24.7601 21.88 25.2134 21.3333 25.2134C20.7867 25.2134 20.3333 24.7601 20.3333 24.2134C20.3333 22.4267 21.7867 20.9601 23.5867 20.9601C25.3867 20.9601 26.84 22.4134 26.84 24.2134C26.84 26.0934 25.4267 27.0534 24.2933 27.8267C23.5867 28.3067 22.92 28.7601 22.5867 29.3601H25.84V29.3467ZM34.6667 29.4401H34.3867V30.3601C34.3867 30.9067 33.9333 31.3601 33.3867 31.3601C32.84 31.3601 32.3867 30.9067 32.3867 30.3601V29.4401H29.7733C29.7733 29.4401 29.7733 29.4401 29.76 29.4401C29.1067 29.4401 28.5067 29.0934 28.1733 28.5334C27.84 27.9601 27.84 27.2534 28.1733 26.6934C29.08 25.1334 30.1333 23.3601 31.0933 21.8134C31.52 21.1334 32.3333 20.8267 33.0933 21.0401C33.8533 21.2667 34.3867 21.9601 34.3733 22.7601V27.4534H34.6667C35.2133 27.4534 35.6667 27.9067 35.6667 28.4534C35.6667 29.0001 35.2133 29.4401 34.6667 29.4401Z" fill="white"/>
<path d="M32.3867 27.44V23.52C31.6 24.8 30.7867 26.1734 30.0533 27.4267H32.3867V27.44Z" fill="white"/>
</g>
<defs>
<linearGradient id="paint0_linear_283_48" x1="0" y1="28.1931" x2="56" y2="28.1931" gradientUnits="userSpaceOnUse">
<stop stop-color="#0476F4"/>
<stop offset="1" stop-color="#04BFFD"/>
</linearGradient>
<clipPath id="clip0_283_48">
<rect width="56" height="56" fill="white"/>
</clipPath>
</defs>
</svg>
