<svg width="56" height="56" viewBox="0 0 56 56" fill="none" xmlns="http://www.w3.org/2000/svg">
<g clip-path="url(#clip0_283_283)">
<circle cx="28" cy="28" r="28" fill="url(#paint0_linear_283_283)"/>
<path d="M27.96 14.6667C20.6 14.6667 14.6267 20.6401 14.6267 28.0001C14.6267 35.3601 20.6 41.3334 27.96 41.3334C35.32 41.3334 41.2934 35.3601 41.2934 28.0001C41.2934 20.6401 35.3334 14.6667 27.96 14.6667ZM31.96 30.9734L28.0934 33.2001C27.6134 33.4801 27.08 33.6134 26.56 33.6134C26.0267 33.6134 25.5067 33.4801 25.0267 33.2001C24.0667 32.6401 23.4934 31.6534 23.4934 30.5334V26.0667C23.4934 24.9601 24.0667 23.9601 25.0267 23.4001C25.9867 22.8401 27.1334 22.8401 28.1067 23.4001L31.9734 25.6267C32.9334 26.1867 33.5067 27.1734 33.5067 28.2934C33.5067 29.4134 32.9334 30.4134 31.96 30.9734Z" fill="white"/>
</g>
<defs>
<linearGradient id="paint0_linear_283_283" x1="0" y1="28.1931" x2="56" y2="28.1931" gradientUnits="userSpaceOnUse">
<stop stop-color="#0476F4"/>
<stop offset="1" stop-color="#04BFFD"/>
</linearGradient>
<clipPath id="clip0_283_283">
<rect width="56" height="56" fill="white"/>
</clipPath>
</defs>
</svg>
