<svg width="56" height="56" viewBox="0 0 56 56" fill="none" xmlns="http://www.w3.org/2000/svg">
<g clip-path="url(#clip0_283_360)">
<circle cx="28" cy="28" r="28" fill="url(#paint0_linear_283_360)"/>
<path d="M32.52 18.9467L34.4 22.7067C34.6533 23.2267 35.3333 23.72 35.9067 23.8267L39.3067 24.3867C41.48 24.7467 41.9867 26.32 40.4267 27.8934L37.7733 30.5467C37.3333 30.9867 37.08 31.8534 37.2267 32.48L37.9867 35.76C38.5867 38.3467 37.2 39.36 34.92 38L31.7333 36.1067C31.16 35.76 30.2 35.76 29.6267 36.1067L26.44 38C24.16 39.3467 22.7733 38.3467 23.3733 35.76L24.1333 32.48C24.2533 31.84 24 30.9734 23.56 30.5334L20.9067 27.88C19.3467 26.32 19.8533 24.7467 22.0267 24.3734L25.4267 23.8134C26 23.72 26.68 23.2134 26.9333 22.6934L28.8133 18.9334C29.84 16.9067 31.4933 16.9067 32.52 18.9467Z" fill="white"/>
<path d="M22.6666 19.6667H14.6666C14.12 19.6667 13.6666 19.2134 13.6666 18.6667C13.6666 18.1201 14.12 17.6667 14.6666 17.6667H22.6666C23.2133 17.6667 23.6666 18.1201 23.6666 18.6667C23.6666 19.2134 23.2133 19.6667 22.6666 19.6667Z" fill="white"/>
<path d="M18.6666 38.3334H14.6666C14.12 38.3334 13.6666 37.88 13.6666 37.3334C13.6666 36.7867 14.12 36.3334 14.6666 36.3334H18.6666C19.2133 36.3334 19.6666 36.7867 19.6666 37.3334C19.6666 37.88 19.2133 38.3334 18.6666 38.3334Z" fill="white"/>
<path d="M16 29H14.6666C14.12 29 13.6666 28.5467 13.6666 28C13.6666 27.4533 14.12 27 14.6666 27H16C16.5466 27 17 27.4533 17 28C17 28.5467 16.5466 29 16 29Z" fill="white"/>
</g>
<defs>
<linearGradient id="paint0_linear_283_360" x1="0" y1="28.1931" x2="56" y2="28.1931" gradientUnits="userSpaceOnUse">
<stop stop-color="#0476F4"/>
<stop offset="1" stop-color="#04BFFD"/>
</linearGradient>
<clipPath id="clip0_283_360">
<rect width="56" height="56" fill="white"/>
</clipPath>
</defs>
</svg>
